<svg width="36" height="24" viewBox="0 0 36 24" fill="none" xmlns="http://www.w3.org/2000/svg">
<path d="M19.5719 23.1998C7.54544 23.1998 0.685724 14.7914 0.399902 0.799805H6.42414C6.62201 11.0693 11.0632 15.4192 14.581 16.3161V0.799805H20.2535V9.65666C23.7273 9.27548 27.377 5.23944 28.6083 0.799805H34.2807C33.8168 3.10233 32.8919 5.28245 31.5641 7.20381C30.2362 9.12516 28.5339 10.7464 26.5635 11.9662C28.7629 13.0807 30.7055 14.6582 32.2631 16.5946C33.8208 18.531 34.958 20.7823 35.5999 23.1998H29.3558C28.7796 21.1 27.6085 19.2203 25.9893 17.7963C24.3701 16.3724 22.3748 15.4674 20.2535 15.195V23.1998H19.5719V23.1998Z" fill="#F7E2E1"/>
</svg>
