<svg width="40" height="41" viewBox="0 0 40 41" fill="none" xmlns="http://www.w3.org/2000/svg">
<path d="M16.1699 35.8051V40.2294C16.1699 40.2972 16.2508 40.3324 16.3003 40.2861L17.3426 39.2052C18.2103 38.3054 19.1689 37.4981 20.2031 36.796C21.077 36.2028 22.0012 35.6874 22.9652 35.2555L24.7766 34.444L27.2543 33.592L27.4794 33.4965C29.2328 32.7527 30.8698 31.76 32.3401 30.5493C33.3794 29.7409 34.3162 28.8087 35.1297 27.7733L35.3394 27.5065C36.4619 26.0558 37.3381 24.4304 37.933 22.6953L38.0778 22.2729L38.3431 21.5655C38.7736 20.4177 39.0781 19.2266 39.2515 18.0131L39.5921 16.1056C39.6134 15.9865 39.4916 15.8928 39.3819 15.944L37.817 16.9177L35.9914 17.7696C35.0399 18.1733 34.0358 18.439 33.0092 18.5588L31.4272 18.7433L27.7759 19.1085L25.8869 19.4917C25.1493 19.6414 24.432 19.8778 23.75 20.1961C22.7043 20.6841 21.7559 21.3577 20.9508 22.1843L20.8645 22.2729C20.1707 23.1633 19.5661 24.1198 19.0595 25.1285L18.8192 25.607C18.1846 26.8706 17.6697 28.1907 17.2812 29.5503L16.8219 31.1578L16.1906 35.5185C16.1768 35.6135 16.1699 35.7092 16.1699 35.8051Z" fill="#E97A80"/>
<path d="M14.3031 36.9968L14.3444 37.7304V40.1646C14.3444 40.2145 14.2873 40.2429 14.2475 40.2127L12.258 38.704C10.9556 37.8937 9.59702 37.1773 8.1926 36.5605L8.08504 36.5132L8.03028 36.4909C6.67874 35.939 5.24016 35.4403 4.17292 34.4442L3.69529 33.9984C3.14709 33.4867 2.67252 32.9013 2.28545 32.259C1.89392 31.6094 1.59564 30.9079 1.39939 30.1752L1.30402 29.8192L1.26365 29.6684C1.11732 29.1222 1.04321 28.559 1.04321 27.9935V26.3422C1.04321 26.3222 1.06706 26.3118 1.08168 26.3255L1.67289 26.8773C1.68776 26.8911 1.70374 26.9038 1.72066 26.9151L2.131 27.1886C2.44779 27.3998 2.78988 27.5703 3.14923 27.6961C3.4828 27.8128 3.82887 27.8902 4.18039 27.9267L5.99858 28.1152L7.31713 28.291C8.25643 28.4163 9.16638 28.7057 10.0054 29.1462L10.1043 29.1981C10.5822 29.4491 11.03 29.7536 11.439 30.106C12.1518 30.72 12.7405 31.4797 13.1613 32.3212C13.3398 32.6782 13.4903 33.0538 13.6072 33.4354L13.7511 33.9057C14.0586 34.9101 14.2439 35.948 14.3031 36.9968Z" fill="#F2C5C7"/>
<path d="M14.3445 25.6809V31.2303C14.3445 31.2953 14.267 31.329 14.2195 31.2846C14.2159 31.2813 14.2126 31.2775 14.2097 31.2735L13.4316 30.1842L12.8806 29.4495C12.6399 29.1285 12.3713 28.8294 12.078 28.5556C11.6778 28.1821 11.2342 27.8582 10.7567 27.5908L10.6781 27.5468C10.3409 27.358 9.98969 27.1952 9.62759 27.0601L8.86749 26.7763L7.43304 26.1677L5.9986 25.4375L4.63153 24.5603C4.15291 24.2531 3.70299 23.9034 3.28725 23.5154C2.66347 22.9332 2.12143 22.2692 1.67591 21.5415L1.30404 20.9342L1.2456 20.8251C0.594614 19.6099 0.172405 18.2855 0 16.9177V15.027C0 14.9592 0.0808554 14.9241 0.130404 14.9703L0.8103 15.4895C1.31 15.8711 1.8685 16.1688 2.46388 16.3709C2.81998 16.4917 3.187 16.5776 3.55975 16.6273L5.73779 16.9177L7.95466 17.1611L8.8688 17.358C9.38702 17.4696 9.8872 17.6528 10.3549 17.9023C11.093 18.2959 11.7357 18.8468 12.2376 19.516L12.3884 19.7171L12.7674 20.3459C13.2946 21.2206 13.6961 22.165 13.9604 23.1514C14.1292 23.7816 14.241 24.4257 14.2946 25.0759L14.3445 25.6809Z" fill="#E97A80"/>
<path d="M19.9516 20.3257L18.6857 22.2668C18.3136 22.8374 18.0024 23.4454 17.7572 24.081L16.959 26.1505C16.9546 26.1619 16.9477 26.1721 16.9388 26.1804C16.8904 26.2256 16.8112 26.1965 16.8036 26.1307L16.3003 21.7862L16.2146 19.2246C16.1848 18.3371 16.2226 17.4487 16.3276 16.5669L16.4091 15.8827C16.5101 15.0338 16.7063 14.1989 16.9938 13.3938C17.3983 12.2612 17.9793 11.1997 18.7153 10.2485L19.2996 9.49343L19.4933 9.29881C20.4905 8.29645 21.6081 7.42155 22.8205 6.69409L24.6462 5.84211L26.8631 4.86843L28.0537 4.41085C28.7353 4.1489 29.3824 3.80473 29.9806 3.38597C30.4225 3.07666 30.8356 2.72813 31.2149 2.34463L32.2096 1.33882L33.2529 0.121711C33.2997 0.0780034 33.3759 0.114081 33.3717 0.178003L33.1225 4.01645L32.9732 5.54862C32.8991 6.30999 32.742 7.06099 32.5049 7.78827L32.3602 8.23202C32.0879 9.06693 31.6762 9.84968 31.1425 10.5471C30.8116 10.9794 30.4362 11.3758 30.0225 11.7298L29.0799 12.5362L26.4719 14.3619L23.4726 16.5527L21.6469 18.2566L19.9516 20.3257Z" fill="#F2C5C7"/>
</svg>
